<svg xmlns="http://www.w3.org/2000/svg" width="1200" height="800">
  <rect width="1200" height="800" fill="#8b5e3c"/>
  <!-- 大きな木目グレイン（広い横方向の帯） -->
  <path d="M0,30 C200,22 400,38 600,28 C800,18 1000,34 1200,26" stroke="#a07040" stroke-width="18" fill="none" opacity="0.35"/>
  <path d="M0,85 C220,77 440,93 660,83 C850,74 1050,88 1200,80" stroke="#9e6b38" stroke-width="12" fill="none" opacity="0.3"/>
  <path d="M0,145 C180,137 360,153 540,143 C730,133 940,147 1200,139" stroke="#a07040" stroke-width="20" fill="none" opacity="0.28"/>
  <path d="M0,210 C240,202 480,218 700,208 C880,199 1060,213 1200,205" stroke="#9e6b38" stroke-width="14" fill="none" opacity="0.32"/>
  <path d="M0,275 C200,267 400,283 600,273 C800,263 1000,277 1200,269" stroke="#a07040" stroke-width="16" fill="none" opacity="0.3"/>
  <path d="M0,340 C220,332 440,348 660,338 C860,329 1060,343 1200,335" stroke="#9e6b38" stroke-width="11" fill="none" opacity="0.35"/>
  <path d="M0,400 C180,392 360,408 540,398 C740,389 960,403 1200,395" stroke="#a07040" stroke-width="18" fill="none" opacity="0.28"/>
  <path d="M0,460 C240,452 460,468 680,458 C870,449 1060,463 1200,455" stroke="#9e6b38" stroke-width="13" fill="none" opacity="0.32"/>
  <path d="M0,525 C200,517 400,533 620,523 C820,514 1020,528 1200,520" stroke="#a07040" stroke-width="15" fill="none" opacity="0.3"/>
  <path d="M0,585 C190,577 380,593 580,583 C780,574 980,588 1200,580" stroke="#9e6b38" stroke-width="10" fill="none" opacity="0.33"/>
  <path d="M0,645 C230,637 460,653 690,643 C880,634 1060,648 1200,640" stroke="#a07040" stroke-width="17" fill="none" opacity="0.28"/>
  <path d="M0,705 C200,697 400,713 600,703 C800,694 1000,708 1200,700" stroke="#9e6b38" stroke-width="12" fill="none" opacity="0.32"/>
  <path d="M0,760 C180,752 360,768 560,758 C760,749 980,763 1200,755" stroke="#a07040" stroke-width="14" fill="none" opacity="0.3"/>
  <!-- 細い木目ライン -->
  <path d="M0,15 C300,8 600,22 900,12 C1050,7 1150,18 1200,13" stroke="#5a3218" stroke-width="2" fill="none" opacity="0.45"/>
  <path d="M0,52 C250,45 500,58 750,49 C950,42 1100,55 1200,49" stroke="#6d4220" stroke-width="1.5" fill="none" opacity="0.4"/>
  <path d="M0,108 C220,101 440,114 660,105 C840,97 1020,110 1200,103" stroke="#5a3218" stroke-width="2.5" fill="none" opacity="0.5"/>
  <path d="M0,120 C280,113 560,126 840,117 C1000,110 1120,123 1200,117" stroke="#6d4220" stroke-width="1" fill="none" opacity="0.38"/>
  <path d="M0,165 C230,158 460,171 690,162 C870,154 1060,167 1200,161" stroke="#5a3218" stroke-width="2" fill="none" opacity="0.45"/>
  <path d="M0,182 C200,175 400,188 620,179 C820,171 1020,184 1200,177" stroke="#6d4220" stroke-width="1.5" fill="none" opacity="0.4"/>
  <path d="M0,230 C260,223 520,236 780,227 C960,219 1100,232 1200,226" stroke="#5a3218" stroke-width="2" fill="none" opacity="0.42"/>
  <path d="M0,248 C200,241 400,254 620,245 C810,237 1010,250 1200,243" stroke="#6d4220" stroke-width="1" fill="none" opacity="0.38"/>
  <path d="M0,295 C220,288 440,301 680,292 C870,284 1060,297 1200,291" stroke="#5a3218" stroke-width="2.5" fill="none" opacity="0.48"/>
  <path d="M0,315 C250,308 500,321 750,312 C930,304 1100,317 1200,311" stroke="#6d4220" stroke-width="1.5" fill="none" opacity="0.4"/>
  <path d="M0,358 C200,351 400,364 620,355 C820,347 1020,360 1200,353" stroke="#5a3218" stroke-width="2" fill="none" opacity="0.45"/>
  <path d="M0,375 C240,368 480,381 720,372 C900,364 1080,377 1200,371" stroke="#6d4220" stroke-width="1" fill="none" opacity="0.38"/>
  <path d="M0,420 C220,413 440,426 680,417 C870,409 1060,422 1200,415" stroke="#5a3218" stroke-width="2" fill="none" opacity="0.42"/>
  <path d="M0,438 C200,431 400,444 620,435 C810,427 1010,440 1200,434" stroke="#6d4220" stroke-width="1.5" fill="none" opacity="0.4"/>
  <path d="M0,480 C260,473 520,486 780,477 C960,469 1100,482 1200,476" stroke="#5a3218" stroke-width="2.5" fill="none" opacity="0.48"/>
  <path d="M0,498 C220,491 440,504 680,495 C870,487 1060,500 1200,494" stroke="#6d4220" stroke-width="1" fill="none" opacity="0.38"/>
  <path d="M0,540 C200,533 400,546 600,537 C800,529 1000,542 1200,535" stroke="#5a3218" stroke-width="2" fill="none" opacity="0.45"/>
  <path d="M0,558 C240,551 480,564 720,555 C900,547 1080,560 1200,554" stroke="#6d4220" stroke-width="1.5" fill="none" opacity="0.4"/>
  <path d="M0,600 C220,593 440,606 680,597 C870,589 1060,602 1200,595" stroke="#5a3218" stroke-width="2" fill="none" opacity="0.45"/>
  <path d="M0,618 C200,611 400,624 620,615 C820,607 1020,620 1200,614" stroke="#6d4220" stroke-width="1" fill="none" opacity="0.38"/>
  <path d="M0,660 C260,653 520,666 780,657 C960,649 1100,662 1200,656" stroke="#5a3218" stroke-width="2.5" fill="none" opacity="0.48"/>
  <path d="M0,678 C220,671 440,684 680,675 C870,667 1060,680 1200,674" stroke="#6d4220" stroke-width="1.5" fill="none" opacity="0.4"/>
  <path d="M0,720 C200,713 400,726 620,717 C820,709 1020,722 1200,715" stroke="#5a3218" stroke-width="2" fill="none" opacity="0.45"/>
  <path d="M0,738 C240,731 480,744 720,735 C900,727 1080,740 1200,734" stroke="#6d4220" stroke-width="1" fill="none" opacity="0.38"/>
  <path d="M0,775 C220,768 440,781 680,772 C870,764 1060,777 1200,771" stroke="#5a3218" stroke-width="2" fill="none" opacity="0.42"/>
  <!-- 節（knots）-->
  <ellipse cx="260" cy="210" rx="22" ry="12" fill="#5a3218" opacity="0.4"/>
  <ellipse cx="260" cy="210" rx="34" ry="19" fill="none" stroke="#5a3218" stroke-width="3" opacity="0.38"/>
  <ellipse cx="260" cy="210" rx="48" ry="27" fill="none" stroke="#6d4220" stroke-width="2" opacity="0.28"/>
  <ellipse cx="260" cy="210" rx="65" ry="37" fill="none" stroke="#7a4e28" stroke-width="1" opacity="0.18"/>
  <ellipse cx="860" cy="445" rx="26" ry="14" fill="#5a3218" opacity="0.38"/>
  <ellipse cx="860" cy="445" rx="38" ry="21" fill="none" stroke="#5a3218" stroke-width="3" opacity="0.35"/>
  <ellipse cx="860" cy="445" rx="52" ry="29" fill="none" stroke="#6d4220" stroke-width="2" opacity="0.26"/>
  <ellipse cx="860" cy="445" rx="68" ry="39" fill="none" stroke="#7a4e28" stroke-width="1" opacity="0.16"/>
  <ellipse cx="560" cy="90" rx="18" ry="10" fill="#5a3218" opacity="0.38"/>
  <ellipse cx="560" cy="90" rx="28" ry="16" fill="none" stroke="#5a3218" stroke-width="2.5" opacity="0.33"/>
  <ellipse cx="560" cy="90" rx="40" ry="22" fill="none" stroke="#6d4220" stroke-width="1.5" opacity="0.24"/>
  <ellipse cx="1020" cy="630" rx="20" ry="11" fill="#5a3218" opacity="0.36"/>
  <ellipse cx="1020" cy="630" rx="30" ry="17" fill="none" stroke="#5a3218" stroke-width="2.5" opacity="0.32"/>
  <ellipse cx="1020" cy="630" rx="44" ry="25" fill="none" stroke="#6d4220" stroke-width="1.5" opacity="0.22"/>
  <ellipse cx="160" cy="560" rx="15" ry="8" fill="#5a3218" opacity="0.35"/>
  <ellipse cx="160" cy="560" rx="24" ry="14" fill="none" stroke="#5a3218" stroke-width="2" opacity="0.3"/>
  <ellipse cx="160" cy="560" rx="36" ry="20" fill="none" stroke="#6d4220" stroke-width="1" opacity="0.2"/>
</svg>
